<svg xmlns="http://www.w3.org/2000/svg" xmlns:xlink="http://www.w3.org/1999/xlink" width="200" height="200" viewBox="0 0 200 200"><defs><style>.a{fill:#404041;}.b{fill:#5d5e5e;}.c{fill:#7f8080;}.d{fill:url(#a);}.e{fill:url(#b);}.f{fill:#fff;}.g{fill:#b8b8b8;}.h{fill:#1b1c1c;}.i{fill:url(#c);}.j{fill:#4360a5;}.k{fill:#c7d3ec;}.l{fill:#212221;}.m{fill:#f6fbfd;}.n{fill:#050505;}.o{fill:#354050;}</style><linearGradient id="a" x1="97.59" y1="130.59" x2="103.4" y2="120.54" gradientUnits="userSpaceOnUse"><stop offset="0.41" stop-color="#f1f1f2"/><stop offset="0.67" stop-color="#fff"/><stop offset="1" stop-color="#bbbdbf"/></linearGradient><linearGradient id="b" x1="89.12" y1="126.58" x2="111.78" y2="126.58" gradientUnits="userSpaceOnUse"><stop offset="0" stop-color="#fff"/><stop offset="1" stop-color="#d0d2d3"/></linearGradient><linearGradient id="c" x1="97.4" y1="134.35" x2="104.5" y2="122.07" gradientUnits="userSpaceOnUse"><stop offset="0.32" stop-color="#f1f1f2"/><stop offset="0.77" stop-color="#fff"/><stop offset="1" stop-color="#bbbdbf"/></linearGradient></defs><title>Artboard 4</title><ellipse class="a" cx="100.89" cy="186.05" rx="65.49" ry="6.36"/><path class="b" d="M54.64,184.91s.6.75.21,1.37A2.84,2.84,0,0,1,52.73,188a20.21,20.21,0,0,1-7.15.15c-2.09-.48-2.38-2.18-2-2.35C44.08,185.48,54.64,184.91,54.64,184.91Z"/><path class="c" d="M61.23,179.86a6.85,6.85,0,0,0-4,2.29,7.65,7.65,0,0,0-1.94,3.09s-.13.4-1.55.75a21.18,21.18,0,0,1-4.82.53,22.36,22.36,0,0,1-4.82-.44c-1.15-.31-.75-1-.8-1.68a85.55,85.55,0,0,0-1.68-11C40.83,170.61,61.23,179.86,61.23,179.86Z"/><path class="b" d="M145.78,184.71s-.6.75-.21,1.37a2.84,2.84,0,0,0,2.12,1.67,20.21,20.21,0,0,0,7.15.15c2.09-.48,2.38-2.18,2-2.35C156.34,185.28,145.78,184.71,145.78,184.71Z"/><path class="c" d="M139.19,179.66a6.85,6.85,0,0,1,4,2.29,7.65,7.65,0,0,1,1.94,3.09s.13.4,1.55.75a21.18,21.18,0,0,0,4.82.53,22.36,22.36,0,0,0,4.82-.44c1.15-.31.75-1,.8-1.68a85.55,85.55,0,0,1,1.68-11C159.59,170.41,139.19,179.66,139.19,179.66Z"/><path class="d" d="M89.09,125.68l.74-.76s4.11-.21,10.4-.21,10.76.21,10.76.21l.77.76Z"/><path class="e" d="M111.78,127.74H89.12v-2.07s8.5-.24,11.33-.24,11.33.24,11.33.24Z"/><path class="f" d="M169.94,153.72c-2.14-10.92-19.24-21.9-44.65-24.85-5-.59-14.83-.64-26.05-.64-8.37,0-15.94-.12-21.33.38-26.31,2.44-44.21,13.68-46,25.12-.67,4.18-.26,9,1.33,11.29,8,11.32,35.9,15.4,67.71,15.4,32.6,0,60.22-2.63,67.46-14.38C169.6,164,170.77,158,169.94,153.72Z"/><path class="g" d="M169.93,158.6c0,19.76-27.77,25.22-69.16,25.22s-68.91-5.46-68.91-25.22c0-20.73,27.52-25.22,68.91-25.22S169.93,137.87,169.93,158.6Z"/><path class="h" d="M166.38,158.37c0,18.21-29.32,22-65.49,22s-65.49-4.27-65.49-22c0-18.12,29.32-22,65.49-22S166.38,140.26,166.38,158.37Z"/><path class="i" d="M86.95,128.31a6.57,6.57,0,0,1,.58-.57,1.94,1.94,0,0,1,1.35-.41c.75,0,5.92-.17,11.82-.17s10.6.09,11.71.15,1.51.09,1.85.42l.58.57Z"/><circle class="j" cx="53.64" cy="157.29" r="12.56"/><circle class="h" cx="53.64" cy="157.29" r="8.77"/><circle class="k" cx="50.75" cy="147.11" r="1.78"/><circle class="k" cx="56.61" cy="147.17" r="1.78"/><circle class="k" cx="61.47" cy="150.18" r="1.78"/><circle class="k" cx="64.01" cy="155.3" r="1.78"/><circle class="k" cx="63.61" cy="160.8" r="1.78"/><circle class="k" cx="60.87" cy="165" r="1.78"/><circle class="k" cx="56.21" cy="167.53" r="1.78"/><circle class="k" cx="51.01" cy="167.53" r="1.78"/><circle class="k" cx="46.25" cy="164.86" r="1.78"/><circle class="k" cx="43.52" cy="160.39" r="1.78"/><circle class="k" cx="43.37" cy="154.71" r="1.78"/><circle class="k" cx="46.08" cy="149.89" r="1.78"/><circle class="j" cx="146.74" cy="157.29" r="12.56"/><circle class="h" cx="146.74" cy="157.29" r="8.77"/><circle class="k" cx="149.63" cy="147.11" r="1.78"/><circle class="k" cx="143.77" cy="147.17" r="1.78"/><circle class="k" cx="138.91" cy="150.18" r="1.78"/><circle class="k" cx="136.37" cy="155.3" r="1.78"/><circle class="k" cx="136.77" cy="160.8" r="1.78"/><circle class="k" cx="139.51" cy="165" r="1.78"/><circle class="k" cx="144.17" cy="167.53" r="1.78"/><circle class="k" cx="149.37" cy="167.53" r="1.78"/><circle class="k" cx="154.13" cy="164.86" r="1.78"/><circle class="k" cx="156.86" cy="160.39" r="1.78"/><circle class="k" cx="157.01" cy="154.71" r="1.78"/><circle class="k" cx="154.3" cy="149.89" r="1.78"/><circle class="l" cx="89.19" cy="161.07" r="0.79"/><circle class="l" cx="89.19" cy="163.08" r="0.79"/><circle class="l" cx="91.2" cy="161.07" r="0.79"/><circle class="l" cx="91.2" cy="163.08" r="0.79"/><circle class="l" cx="93.21" cy="161.07" r="0.79"/><circle class="l" cx="93.21" cy="163.08" r="0.79"/><circle class="l" cx="95.22" cy="161.07" r="0.79"/><circle class="l" cx="95.22" cy="163.08" r="0.79"/><circle class="l" cx="97.23" cy="161.07" r="0.79"/><circle class="l" cx="97.23" cy="163.08" r="0.79"/><circle class="l" cx="99.24" cy="161.07" r="0.79"/><circle class="l" cx="99.24" cy="163.08" r="0.79"/><circle class="l" cx="101.25" cy="161.07" r="0.79"/><circle class="l" cx="101.25" cy="163.08" r="0.79"/><circle class="l" cx="103.26" cy="161.07" r="0.79"/><circle class="l" cx="103.26" cy="163.08" r="0.79"/><circle class="l" cx="105.27" cy="161.07" r="0.79"/><circle class="l" cx="105.27" cy="163.08" r="0.79"/><circle class="l" cx="107.28" cy="161.07" r="0.79"/><circle class="l" cx="107.28" cy="163.08" r="0.79"/><circle class="l" cx="109.29" cy="161.07" r="0.79"/><circle class="l" cx="109.29" cy="163.08" r="0.79"/><circle class="l" cx="111.3" cy="161.07" r="0.79"/><circle class="l" cx="111.3" cy="163.08" r="0.79"/><circle class="l" cx="89.19" cy="165.09" r="0.79"/><circle class="l" cx="91.2" cy="165.09" r="0.79"/><circle class="l" cx="93.21" cy="165.09" r="0.79"/><circle class="l" cx="95.22" cy="165.09" r="0.79"/><circle class="l" cx="97.23" cy="165.09" r="0.79"/><circle class="l" cx="99.24" cy="165.09" r="0.79"/><circle class="l" cx="101.25" cy="165.09" r="0.79"/><circle class="l" cx="103.26" cy="165.09" r="0.79"/><circle class="l" cx="105.27" cy="165.09" r="0.79"/><circle class="l" cx="107.28" cy="165.09" r="0.79"/><circle class="l" cx="109.29" cy="165.09" r="0.79"/><circle class="l" cx="111.3" cy="165.09" r="0.79"/><circle class="l" cx="89.19" cy="157.05" r="0.79"/><circle class="l" cx="89.19" cy="159.06" r="0.79"/><circle class="l" cx="91.2" cy="157.05" r="0.79"/><circle class="l" cx="91.2" cy="159.06" r="0.79"/><circle class="l" cx="93.21" cy="157.05" r="0.79"/><circle class="l" cx="93.21" cy="159.06" r="0.79"/><circle class="l" cx="95.22" cy="157.05" r="0.79"/><circle class="l" cx="95.22" cy="159.06" r="0.79"/><circle class="l" cx="97.23" cy="157.05" r="0.79"/><circle class="l" cx="97.23" cy="159.06" r="0.79"/><circle class="l" cx="99.24" cy="157.05" r="0.79"/><circle class="l" cx="99.24" cy="159.06" r="0.79"/><circle class="l" cx="101.25" cy="157.05" r="0.79"/><circle class="l" cx="101.25" cy="159.06" r="0.79"/><circle class="l" cx="103.26" cy="157.05" r="0.79"/><circle class="l" cx="103.26" cy="159.06" r="0.79"/><circle class="l" cx="105.27" cy="157.05" r="0.79"/><circle class="l" cx="105.27" cy="159.06" r="0.79"/><circle class="l" cx="107.28" cy="157.05" r="0.79"/><circle class="l" cx="107.28" cy="159.06" r="0.79"/><circle class="l" cx="109.29" cy="157.05" r="0.79"/><circle class="l" cx="109.29" cy="159.06" r="0.79"/><circle class="l" cx="111.3" cy="157.05" r="0.79"/><circle class="l" cx="111.3" cy="159.06" r="0.79"/><circle class="l" cx="89.19" cy="155.04" r="0.79"/><circle class="l" cx="91.2" cy="155.04" r="0.79"/><circle class="l" cx="93.21" cy="155.04" r="0.79"/><circle class="l" cx="95.22" cy="155.04" r="0.79"/><circle class="l" cx="97.23" cy="155.04" r="0.79"/><circle class="l" cx="99.24" cy="155.04" r="0.79"/><circle class="l" cx="101.25" cy="155.04" r="0.79"/><circle class="l" cx="103.26" cy="155.04" r="0.79"/><circle class="l" cx="105.27" cy="155.04" r="0.79"/><circle class="l" cx="107.28" cy="155.04" r="0.79"/><circle class="l" cx="109.29" cy="155.04" r="0.79"/><circle class="l" cx="111.3" cy="155.04" r="0.79"/><circle class="l" cx="89.19" cy="151.02" r="0.79"/><circle class="l" cx="89.19" cy="153.03" r="0.79"/><circle class="l" cx="91.2" cy="151.02" r="0.79"/><circle class="l" cx="91.2" cy="153.03" r="0.79"/><circle class="l" cx="93.21" cy="151.02" r="0.79"/><circle class="l" cx="93.21" cy="153.03" r="0.79"/><circle class="l" cx="95.22" cy="151.02" r="0.79"/><circle class="l" cx="95.22" cy="153.03" r="0.79"/><circle class="l" cx="97.23" cy="151.02" r="0.79"/><circle class="l" cx="97.23" cy="153.03" r="0.79"/><circle class="l" cx="99.24" cy="151.02" r="0.79"/><circle class="l" cx="99.24" cy="153.03" r="0.79"/><circle class="l" cx="101.25" cy="151.02" r="0.79"/><circle class="l" cx="101.25" cy="153.03" r="0.79"/><circle class="l" cx="103.26" cy="151.02" r="0.79"/><circle class="l" cx="103.26" cy="153.03" r="0.79"/><circle class="l" cx="105.27" cy="151.02" r="0.79"/><circle class="l" cx="105.27" cy="153.03" r="0.79"/><circle class="l" cx="107.28" cy="151.02" r="0.79"/><circle class="l" cx="107.28" cy="153.03" r="0.79"/><circle class="l" cx="109.29" cy="151.02" r="0.79"/><circle class="l" cx="109.29" cy="153.03" r="0.79"/><circle class="l" cx="111.3" cy="151.02" r="0.79"/><circle class="l" cx="111.3" cy="153.03" r="0.79"/><circle class="l" cx="113.31" cy="161.07" r="0.79"/><circle class="l" cx="113.31" cy="163.08" r="0.79"/><circle class="l" cx="115.32" cy="161.07" r="0.79"/><circle class="l" cx="115.32" cy="163.08" r="0.79"/><circle class="l" cx="117.33" cy="161.07" r="0.79"/><circle class="l" cx="117.33" cy="163.08" r="0.79"/><circle class="l" cx="119.34" cy="161.07" r="0.79"/><circle class="l" cx="119.34" cy="163.08" r="0.79"/><circle class="l" cx="121.35" cy="161.07" r="0.79"/><circle class="l" cx="121.35" cy="163.08" r="0.79"/><circle class="l" cx="123.36" cy="161.07" r="0.79"/><circle class="l" cx="123.36" cy="163.08" r="0.79"/><circle class="l" cx="125.37" cy="161.07" r="0.79"/><circle class="l" cx="125.37" cy="163.08" r="0.79"/><circle class="l" cx="127.38" cy="161.07" r="0.79"/><circle class="l" cx="127.38" cy="163.08" r="0.79"/><circle class="l" cx="129.39" cy="161.07" r="0.79"/><circle class="l" cx="129.39" cy="163.08" r="0.79"/><circle class="l" cx="131.4" cy="161.07" r="0.79"/><circle class="l" cx="131.4" cy="163.08" r="0.79"/><circle class="l" cx="113.31" cy="165.09" r="0.79"/><circle class="l" cx="115.32" cy="165.09" r="0.79"/><circle class="l" cx="117.33" cy="165.09" r="0.79"/><circle class="l" cx="119.34" cy="165.09" r="0.79"/><circle class="l" cx="121.35" cy="165.09" r="0.79"/><circle class="l" cx="123.36" cy="165.09" r="0.79"/><circle class="l" cx="125.37" cy="165.09" r="0.79"/><circle class="l" cx="127.38" cy="165.09" r="0.79"/><circle class="l" cx="129.39" cy="165.09" r="0.79"/><circle class="l" cx="131.4" cy="165.09" r="0.79"/><circle class="l" cx="113.31" cy="157.05" r="0.79"/><circle class="l" cx="113.31" cy="159.06" r="0.79"/><circle class="l" cx="115.32" cy="157.05" r="0.79"/><circle class="l" cx="115.32" cy="159.06" r="0.79"/><circle class="l" cx="117.33" cy="157.05" r="0.79"/><circle class="l" cx="117.33" cy="159.06" r="0.79"/><circle class="l" cx="119.34" cy="157.05" r="0.79"/><circle class="l" cx="119.34" cy="159.06" r="0.79"/><circle class="l" cx="121.35" cy="157.05" r="0.79"/><circle class="l" cx="121.35" cy="159.06" r="0.79"/><circle class="l" cx="123.36" cy="157.05" r="0.79"/><circle class="l" cx="123.36" cy="159.06" r="0.79"/><circle class="l" cx="125.37" cy="157.05" r="0.79"/><circle class="l" cx="125.37" cy="159.06" r="0.79"/><circle class="l" cx="127.38" cy="157.05" r="0.79"/><circle class="l" cx="127.38" cy="159.06" r="0.79"/><circle class="l" cx="129.39" cy="157.05" r="0.79"/><circle class="l" cx="129.39" cy="159.06" r="0.79"/><circle class="l" cx="131.4" cy="157.05" r="0.79"/><circle class="l" cx="131.4" cy="159.06" r="0.79"/><circle class="l" cx="113.31" cy="155.04" r="0.79"/><circle class="l" cx="115.32" cy="155.04" r="0.79"/><circle class="l" cx="117.33" cy="155.04" r="0.79"/><circle class="l" cx="119.34" cy="155.04" r="0.79"/><circle class="l" cx="121.35" cy="155.04" r="0.79"/><circle class="l" cx="123.36" cy="155.04" r="0.79"/><circle class="l" cx="125.37" cy="155.04" r="0.79"/><circle class="l" cx="127.38" cy="155.04" r="0.79"/><circle class="l" cx="129.39" cy="155.04" r="0.79"/><circle class="l" cx="131.4" cy="155.04" r="0.79"/><circle class="l" cx="113.31" cy="151.02" r="0.79"/><circle class="l" cx="113.31" cy="153.03" r="0.79"/><circle class="l" cx="69.09" cy="161.07" r="0.79"/><circle class="l" cx="69.09" cy="163.08" r="0.79"/><circle class="l" cx="71.1" cy="161.07" r="0.79"/><circle class="l" cx="71.1" cy="163.08" r="0.79"/><circle class="l" cx="73.11" cy="161.07" r="0.79"/><circle class="l" cx="73.11" cy="163.08" r="0.79"/><circle class="l" cx="75.12" cy="161.07" r="0.79"/><circle class="l" cx="75.12" cy="163.08" r="0.79"/><circle class="l" cx="77.13" cy="161.07" r="0.79"/><circle class="l" cx="77.13" cy="163.08" r="0.79"/><circle class="l" cx="79.14" cy="161.07" r="0.79"/><circle class="l" cx="79.14" cy="163.08" r="0.79"/><circle class="l" cx="81.15" cy="161.07" r="0.79"/><circle class="l" cx="81.15" cy="163.08" r="0.79"/><circle class="l" cx="83.16" cy="161.07" r="0.79"/><circle class="l" cx="83.16" cy="163.08" r="0.79"/><circle class="l" cx="85.17" cy="161.07" r="0.79"/><circle class="l" cx="85.17" cy="163.08" r="0.79"/><circle class="l" cx="87.18" cy="161.07" r="0.79"/><circle class="l" cx="87.18" cy="163.08" r="0.79"/><circle class="l" cx="69.09" cy="165.09" r="0.79"/><circle class="l" cx="71.1" cy="165.09" r="0.79"/><circle class="l" cx="73.11" cy="165.09" r="0.79"/><circle class="l" cx="75.12" cy="165.09" r="0.79"/><circle class="l" cx="77.13" cy="165.09" r="0.79"/><circle class="l" cx="79.14" cy="165.09" r="0.79"/><circle class="l" cx="81.15" cy="165.09" r="0.79"/><circle class="l" cx="83.16" cy="165.09" r="0.79"/><circle class="l" cx="85.17" cy="165.09" r="0.79"/><circle class="l" cx="87.18" cy="165.09" r="0.79"/><circle class="l" cx="69.09" cy="157.05" r="0.79"/><circle class="l" cx="69.09" cy="159.06" r="0.79"/><circle class="l" cx="71.1" cy="157.05" r="0.79"/><circle class="l" cx="71.1" cy="159.06" r="0.79"/><circle class="l" cx="73.11" cy="157.05" r="0.79"/><circle class="l" cx="73.11" cy="159.06" r="0.79"/><circle class="l" cx="75.12" cy="157.05" r="0.79"/><circle class="l" cx="75.12" cy="159.06" r="0.79"/><circle class="l" cx="77.13" cy="157.05" r="0.79"/><circle class="l" cx="77.13" cy="159.06" r="0.79"/><circle class="l" cx="79.14" cy="157.05" r="0.79"/><circle class="l" cx="79.14" cy="159.06" r="0.79"/><circle class="l" cx="81.15" cy="157.05" r="0.79"/><circle class="l" cx="81.15" cy="159.06" r="0.79"/><circle class="l" cx="83.16" cy="157.05" r="0.79"/><circle class="l" cx="83.16" cy="159.06" r="0.79"/><circle class="l" cx="85.17" cy="157.05" r="0.79"/><circle class="l" cx="85.17" cy="159.06" r="0.79"/><circle class="l" cx="87.18" cy="157.05" r="0.79"/><circle class="l" cx="87.18" cy="159.06" r="0.79"/><circle class="l" cx="69.09" cy="155.04" r="0.79"/><circle class="l" cx="71.1" cy="155.04" r="0.79"/><circle class="l" cx="73.11" cy="155.04" r="0.79"/><circle class="l" cx="75.12" cy="155.04" r="0.79"/><circle class="l" cx="77.13" cy="155.04" r="0.79"/><circle class="l" cx="79.14" cy="155.04" r="0.79"/><circle class="l" cx="81.15" cy="155.04" r="0.79"/><circle class="l" cx="83.16" cy="155.04" r="0.79"/><circle class="l" cx="85.17" cy="155.04" r="0.79"/><circle class="l" cx="87.18" cy="155.04" r="0.79"/><circle class="l" cx="69.09" cy="151.02" r="0.79"/><circle class="l" cx="69.09" cy="153.03" r="0.79"/><circle class="l" cx="71.1" cy="151.02" r="0.79"/><circle class="l" cx="71.1" cy="153.03" r="0.79"/><circle class="l" cx="73.11" cy="151.02" r="0.79"/><circle class="l" cx="73.11" cy="153.03" r="0.79"/><circle class="l" cx="75.12" cy="151.02" r="0.79"/><circle class="l" cx="75.12" cy="153.03" r="0.79"/><circle class="l" cx="77.13" cy="151.02" r="0.79"/><circle class="l" cx="77.13" cy="153.03" r="0.79"/><circle class="l" cx="79.14" cy="151.02" r="0.79"/><circle class="l" cx="79.14" cy="153.03" r="0.79"/><circle class="l" cx="81.15" cy="151.02" r="0.79"/><circle class="l" cx="81.15" cy="153.03" r="0.79"/><circle class="l" cx="83.16" cy="151.02" r="0.79"/><circle class="l" cx="83.16" cy="153.03" r="0.79"/><circle class="l" cx="85.17" cy="151.02" r="0.79"/><circle class="l" cx="85.17" cy="153.03" r="0.79"/><circle class="l" cx="87.18" cy="151.02" r="0.79"/><circle class="l" cx="87.18" cy="153.03" r="0.79"/><circle class="l" cx="115.32" cy="151.02" r="0.79"/><circle class="l" cx="115.32" cy="153.03" r="0.79"/><circle class="l" cx="117.33" cy="151.02" r="0.79"/><circle class="l" cx="117.33" cy="153.03" r="0.79"/><circle class="l" cx="119.34" cy="151.02" r="0.79"/><circle class="l" cx="119.34" cy="153.03" r="0.79"/><circle class="l" cx="121.35" cy="151.02" r="0.79"/><circle class="l" cx="121.35" cy="153.03" r="0.79"/><circle class="l" cx="123.36" cy="151.02" r="0.79"/><circle class="l" cx="123.36" cy="153.03" r="0.79"/><circle class="l" cx="125.37" cy="151.02" r="0.79"/><circle class="l" cx="125.37" cy="153.03" r="0.79"/><circle class="l" cx="127.38" cy="151.02" r="0.79"/><circle class="l" cx="127.38" cy="153.03" r="0.79"/><circle class="l" cx="129.39" cy="151.02" r="0.79"/><circle class="l" cx="129.39" cy="153.03" r="0.79"/><circle class="l" cx="131.4" cy="151.02" r="0.79"/><circle class="l" cx="131.4" cy="153.03" r="0.79"/><circle class="m" cx="75.12" cy="163.08" r="0.79"/><circle class="m" cx="75.12" cy="161.07" r="0.79"/><circle class="m" cx="75.12" cy="159.06" r="0.79"/><circle class="m" cx="83.16" cy="161.07" r="0.79"/><circle class="m" cx="83.16" cy="163.08" r="0.79"/><circle class="m" cx="83.16" cy="157.05" r="0.79"/><circle class="m" cx="83.16" cy="159.06" r="0.79"/><circle class="m" cx="77.13" cy="165.09" r="0.79"/><circle class="m" cx="79.14" cy="165.09" r="0.79"/><circle class="m" cx="81.15" cy="165.09" r="0.79"/><circle class="m" cx="75.12" cy="155.04" r="0.79"/><circle class="m" cx="75.12" cy="157.05" r="0.79"/><circle class="m" cx="83.16" cy="155.04" r="0.79"/><circle class="m" cx="77.13" cy="153.03" r="0.79"/><circle class="m" cx="79.14" cy="153.03" r="0.79"/><circle class="m" cx="81.15" cy="153.03" r="0.79"/><circle class="m" cx="117.33" cy="163.08" r="0.79"/><circle class="m" cx="117.33" cy="161.07" r="0.79"/><circle class="m" cx="117.33" cy="159.06" r="0.79"/><circle class="m" cx="125.37" cy="161.07" r="0.79"/><circle class="m" cx="125.37" cy="163.08" r="0.79"/><circle class="m" cx="125.37" cy="157.05" r="0.79"/><circle class="m" cx="125.37" cy="159.06" r="0.79"/><circle class="m" cx="119.34" cy="165.09" r="0.79"/><circle class="m" cx="121.35" cy="165.09" r="0.79"/><circle class="m" cx="123.36" cy="165.09" r="0.79"/><circle class="m" cx="117.33" cy="155.04" r="0.79"/><circle class="m" cx="117.33" cy="157.05" r="0.79"/><circle class="m" cx="125.37" cy="155.04" r="0.79"/><circle class="m" cx="119.34" cy="153.03" r="0.79"/><circle class="m" cx="121.35" cy="153.03" r="0.79"/><circle class="m" cx="123.36" cy="153.03" r="0.79"/><circle class="m" cx="87.18" cy="163.08" r="0.79"/><circle class="m" cx="87.18" cy="161.07" r="0.79"/><circle class="m" cx="87.18" cy="159.06" r="0.79"/><circle class="m" cx="89.19" cy="159.06" r="0.79"/><circle class="m" cx="91.2" cy="159.06" r="0.79"/><circle class="m" cx="93.21" cy="159.06" r="0.79"/><circle class="m" cx="95.22" cy="161.07" r="0.79"/><circle class="m" cx="95.22" cy="163.08" r="0.79"/><circle class="m" cx="87.18" cy="165.09" r="0.79"/><circle class="m" cx="95.22" cy="165.09" r="0.79"/><circle class="m" cx="95.22" cy="157.05" r="0.79"/><circle class="m" cx="95.22" cy="159.06" r="0.79"/><circle class="m" cx="87.18" cy="155.04" r="0.79"/><circle class="m" cx="87.18" cy="157.05" r="0.79"/><circle class="m" cx="95.22" cy="155.04" r="0.79"/><circle class="m" cx="87.18" cy="153.03" r="0.79"/><circle class="m" cx="95.22" cy="153.03" r="0.79"/><circle class="m" cx="105.27" cy="163.08" r="0.79"/><circle class="m" cx="105.27" cy="161.07" r="0.79"/><circle class="m" cx="105.27" cy="159.06" r="0.79"/><circle class="m" cx="113.31" cy="161.07" r="0.79"/><circle class="m" cx="113.31" cy="163.08" r="0.79"/><circle class="m" cx="105.27" cy="165.09" r="0.79"/><circle class="m" cx="113.31" cy="165.09" r="0.79"/><circle class="m" cx="113.31" cy="157.05" r="0.79"/><circle class="m" cx="113.31" cy="159.06" r="0.79"/><circle class="m" cx="105.27" cy="155.04" r="0.79"/><circle class="m" cx="105.27" cy="157.05" r="0.79"/><circle class="m" cx="113.31" cy="155.04" r="0.79"/><circle class="m" cx="105.27" cy="153.03" r="0.79"/><circle class="m" cx="107.28" cy="155.04" r="0.79"/><circle class="m" cx="109.29" cy="157.05" r="0.79"/><circle class="m" cx="111.3" cy="159.06" r="0.79"/><circle class="m" cx="113.31" cy="153.03" r="0.79"/><circle class="n" cx="100" cy="140.7" r="0.41"/><circle class="n" cx="98.58" cy="141.01" r="0.41"/><circle class="n" cx="98.58" cy="142.55" r="0.41"/><circle class="n" cx="98.99" cy="144.51" r="0.41"/><circle class="n" cx="97.71" cy="143.76" r="0.41"/><circle class="n" cx="97.37" cy="141.83" r="0.41"/><circle class="n" cx="96.55" cy="143.06" r="0.41"/><circle class="n" cx="96.3" cy="144.51" r="0.41"/><circle class="n" cx="97.71" cy="145.24" r="0.41"/><circle class="n" cx="96.55" cy="145.96" r="0.41"/><circle class="n" cx="98.58" cy="146.48" r="0.41"/><circle class="n" cx="98.61" cy="148" r="0.41"/><circle class="n" cx="97.37" cy="147.18" r="0.41"/><circle class="n" cx="101.48" cy="141.01" r="0.41"/><circle class="n" cx="101.48" cy="142.55" r="0.41"/><circle class="n" cx="101.07" cy="144.51" r="0.41"/><circle class="n" cx="102.35" cy="143.76" r="0.41"/><circle class="n" cx="102.69" cy="141.83" r="0.41"/><circle class="n" cx="103.51" cy="143.06" r="0.41"/><circle class="n" cx="103.77" cy="144.51" r="0.41"/><circle class="n" cx="102.35" cy="145.24" r="0.41"/><circle class="n" cx="103.51" cy="145.96" r="0.41"/><circle class="n" cx="101.48" cy="146.48" r="0.41"/><circle class="n" cx="101.45" cy="148" r="0.41"/><circle class="n" cx="102.69" cy="147.18" r="0.41"/><circle class="n" cx="100" cy="142.05" r="0.41"/><circle class="n" cx="100" cy="143.4" r="0.41"/><circle class="n" cx="100" cy="145.55" r="0.41"/><circle class="n" cx="100" cy="146.91" r="0.41"/><circle class="n" cx="100" cy="148.28" r="0.41"/><path class="f" d="M187.81,34.26a8.69,8.69,0,0,0-7.16-7.51C169,24.76,141.58,21,100,21s-69,3.76-80.65,5.76a8.69,8.69,0,0,0-7.16,7.51,226.82,226.82,0,0,0-1.75,26.29,226.82,226.82,0,0,0,1.75,26.29,8.69,8.69,0,0,0,7.16,7.51c10.48,1.8,33.88,5,68.91,5.65L100,114.4,111.74,100c35-.61,58.43-3.86,68.91-5.65a8.69,8.69,0,0,0,7.16-7.51,226.81,226.81,0,0,0,1.75-26.29A226.81,226.81,0,0,0,187.81,34.26Z"/><path class="o" d="M25.95,46.61H23.59V35.18h2.36Z"/><path class="o" d="M31.64,42.3a5.12,5.12,0,0,1,.89-3.17A2.89,2.89,0,0,1,35,38a2.61,2.61,0,0,1,2.05.93V34.55H39.3V46.61H37.25l-.11-.9A2.67,2.67,0,0,1,35,46.77a2.89,2.89,0,0,1-2.41-1.18A5.29,5.29,0,0,1,31.64,42.3Zm2.27.17a3.36,3.36,0,0,0,.42,1.83,1.36,1.36,0,0,0,1.21.64A1.52,1.52,0,0,0,37,44.05V40.69a1.5,1.5,0,0,0-1.47-.89Q33.91,39.8,33.91,42.47Z"/><path class="o" d="M40.7,42.29A5,5,0,0,1,41.19,40a3.56,3.56,0,0,1,1.4-1.53A4.09,4.09,0,0,1,44.72,38,3.87,3.87,0,0,1,47.53,39a4.23,4.23,0,0,1,1.21,2.86l0,.58a4.44,4.44,0,0,1-1.09,3.14,4.23,4.23,0,0,1-5.87,0,4.52,4.52,0,0,1-1.1-3.21Zm2.27.16a3.17,3.17,0,0,0,.46,1.85,1.64,1.64,0,0,0,2.59,0,3.47,3.47,0,0,0,.46-2A3.14,3.14,0,0,0,46,40.44a1.51,1.51,0,0,0-1.3-.65,1.48,1.48,0,0,0-1.29.65A3.53,3.53,0,0,0,43,42.45Z"/><path class="o" d="M52.25,38.11l.07,1A3,3,0,0,1,54.76,38a2.47,2.47,0,0,1,2,.79,3.71,3.71,0,0,1,.68,2.37v5.49H55.18V41.18a1.48,1.48,0,0,0-.31-1,1.41,1.41,0,0,0-1-.33,1.56,1.56,0,0,0-1.44.82v6H50.11v-8.5Z"/><path class="o" d="M59.83,35.7l-.23,3.17H58.16V34.55h1.67Z"/><path class="o" d="M63.86,36v2.09h1.45v1.67H63.86V44a1,1,0,0,0,.18.68.91.91,0,0,0,.69.2,3.62,3.62,0,0,0,.67-.05v1.72a4.67,4.67,0,0,1-1.37.2,2.17,2.17,0,0,1-2.44-2.41V39.78H60.34V38.11h1.24V36Z"/><path class="o" d="M73.67,43.21l-.82.82v2.59H70.58V34.55h2.27v6.69l.44-.57,2.18-2.55H78.2l-3.07,3.54,3.34,5H75.85Z"/><path class="o" d="M81.27,38.11l.07,1A3,3,0,0,1,83.78,38a2.47,2.47,0,0,1,2,.79,3.71,3.71,0,0,1,.68,2.37v5.49H84.2V41.18a1.48,1.48,0,0,0-.31-1,1.41,1.41,0,0,0-1-.33,1.56,1.56,0,0,0-1.44.82v6H79.13v-8.5Z"/><path class="o" d="M87.84,42.29A5,5,0,0,1,88.32,40a3.56,3.56,0,0,1,1.4-1.53A4.09,4.09,0,0,1,91.85,38,3.87,3.87,0,0,1,94.66,39a4.23,4.23,0,0,1,1.21,2.86l0,.58a4.44,4.44,0,0,1-1.09,3.14,4.23,4.23,0,0,1-5.87,0,4.52,4.52,0,0,1-1.1-3.21Zm2.27.16a3.17,3.17,0,0,0,.46,1.85,1.64,1.64,0,0,0,2.59,0,3.47,3.47,0,0,0,.46-2,3.14,3.14,0,0,0-.46-1.84,1.51,1.51,0,0,0-1.3-.65,1.48,1.48,0,0,0-1.29.65A3.53,3.53,0,0,0,90.11,42.45Z"/><path class="o" d="M104.68,43.53l1.12-5.41H108l-2.17,8.5h-1.9l-1.61-5.35-1.61,5.35H98.8l-2.17-8.5h2.19l1.11,5.41,1.56-5.41h1.64Z"/><path class="o" d="M115.84,36v2.09h1.45v1.67h-1.45V44a1,1,0,0,0,.18.68.91.91,0,0,0,.69.2,3.62,3.62,0,0,0,.67-.05v1.72a4.67,4.67,0,0,1-1.37.2,2.17,2.17,0,0,1-2.44-2.41V39.78h-1.24V38.11h1.24V36Z"/><path class="o" d="M120.77,39A2.83,2.83,0,0,1,123,38q2.77,0,2.8,3.21v5.44h-2.27V41.23a1.58,1.58,0,0,0-.31-1.08,1.35,1.35,0,0,0-1-.35,1.54,1.54,0,0,0-1.45.77v6H118.5V34.55h2.27Z"/><path class="o" d="M132.48,46.61a2.52,2.52,0,0,1-.23-.76,2.75,2.75,0,0,1-2.14.92A3,3,0,0,1,128,46a2.32,2.32,0,0,1-.82-1.82,2.4,2.4,0,0,1,1-2.07,4.94,4.94,0,0,1,2.89-.73h1v-.49a1.4,1.4,0,0,0-.3-.94,1.19,1.19,0,0,0-1-.35,1.36,1.36,0,0,0-.9.27.93.93,0,0,0-.33.75h-2.27a2.28,2.28,0,0,1,.46-1.37,3,3,0,0,1,1.29-1A4.7,4.7,0,0,1,131,38a3.71,3.71,0,0,1,2.49.79,2.76,2.76,0,0,1,.92,2.22v3.68a4.08,4.08,0,0,0,.34,1.83v.13ZM130.61,45a2,2,0,0,0,.93-.22,1.47,1.47,0,0,0,.63-.6V42.75h-.85q-1.71,0-1.82,1.18v.13a.91.91,0,0,0,.3.7A1.16,1.16,0,0,0,130.61,45Z"/><path class="o" d="M138.9,36v2.09h1.45v1.67H138.9V44a1,1,0,0,0,.18.68.91.91,0,0,0,.69.2,3.62,3.62,0,0,0,.67-.05v1.72a4.67,4.67,0,0,1-1.37.2,2.17,2.17,0,0,1-2.44-2.41V39.78h-1.24V38.11h1.24V36Z"/><path class="o" d="M154.43,35.18v7.53a3.86,3.86,0,0,1-1.17,3A4.53,4.53,0,0,1,150,46.77a4.58,4.58,0,0,1-3.18-1.06,3.79,3.79,0,0,1-1.2-2.92V35.18H148v7.55a2.18,2.18,0,0,0,.54,1.64,2.06,2.06,0,0,0,1.49.51q2,0,2-2.09V35.18Z"/><path class="o" d="M160.6,42.43h-1.88v4.19h-2.36V35.18h4.25a4.81,4.81,0,0,1,3.13.9,3.12,3.12,0,0,1,1.1,2.55,3.53,3.53,0,0,1-.51,2,3.46,3.46,0,0,1-1.54,1.25l2.47,4.67v.11h-2.53Zm-1.88-1.91h1.9a2,2,0,0,0,1.38-.45,1.61,1.61,0,0,0,.49-1.25,1.73,1.73,0,0,0-.46-1.27,1.91,1.91,0,0,0-1.41-.46h-1.89Z"/><path class="o" d="M169,44.72h5v1.89h-7.36V35.18H169Z"/><path class="o" d="M175.79,49.48l-1.19-.62.28-.51a4.09,4.09,0,0,0,.54-1.91V44.68h1.92v1.57A4.07,4.07,0,0,1,176.9,48,4.51,4.51,0,0,1,175.79,49.48Z"/><path class="o" d="M41.2,61.94a5.15,5.15,0,0,1-.87,3.19,2.89,2.89,0,0,1-2.44,1.14,2.65,2.65,0,0,1-2.21-1.06l-.1.9h-2V54h2.27v4.33a2.59,2.59,0,0,1,2.07-.92,2.91,2.91,0,0,1,2.44,1.14,5.16,5.16,0,0,1,.88,3.22Zm-2.27-.17a3.39,3.39,0,0,0-.41-1.88,1.38,1.38,0,0,0-1.22-.59,1.5,1.5,0,0,0-1.49.89v3.35a1.52,1.52,0,0,0,1.51.9,1.4,1.4,0,0,0,1.45-1.08A5.58,5.58,0,0,0,38.93,61.78Z"/><path class="o" d="M47.69,65.25a2.85,2.85,0,0,1-2.33,1,2.69,2.69,0,0,1-2.09-.79,3.35,3.35,0,0,1-.73-2.3V57.61h2.27v5.5q0,1.33,1.21,1.33a1.64,1.64,0,0,0,1.59-.8v-6h2.28v8.5H47.76Z"/><path class="o" d="M54.32,55.52v2.09h1.45v1.67H54.32v4.24a1,1,0,0,0,.18.68.91.91,0,0,0,.69.2,3.62,3.62,0,0,0,.67-.05v1.72a4.67,4.67,0,0,1-1.37.2,2.17,2.17,0,0,1-2.44-2.41V59.28H50.81V57.61h1.24V55.52Z"/><path class="o" d="M63.7,66.11H61.35V54.67H63.7Z"/><path class="o" d="M67,55.2l-.23,3.17H65.36V54H67Z"/><path class="o" d="M70.31,57.61l.07,1a3,3,0,0,1,2.44-1.11,2.27,2.27,0,0,1,2.25,1.3,2.92,2.92,0,0,1,2.55-1.3,2.54,2.54,0,0,1,2.06.81,3.7,3.7,0,0,1,.68,2.42v5.43H78.09V60.69a1.62,1.62,0,0,0-.28-1.06,1.25,1.25,0,0,0-1-.33,1.42,1.42,0,0,0-1.41,1v5.84H73.13V60.7a1.6,1.6,0,0,0-.29-1.07,1.27,1.27,0,0,0-1-.33,1.47,1.47,0,0,0-1.4.8v6H68.18v-8.5Z"/><path class="o" d="M91,66.11a2.52,2.52,0,0,1-.23-.76,2.75,2.75,0,0,1-2.14.92,3,3,0,0,1-2.07-.72,2.32,2.32,0,0,1-.82-1.82,2.4,2.4,0,0,1,1-2.07,4.94,4.94,0,0,1,2.89-.73h1v-.49a1.4,1.4,0,0,0-.3-.94,1.19,1.19,0,0,0-1-.35,1.36,1.36,0,0,0-.9.27.93.93,0,0,0-.33.75H86a2.28,2.28,0,0,1,.46-1.37,3,3,0,0,1,1.29-1,4.7,4.7,0,0,1,1.87-.36,3.71,3.71,0,0,1,2.49.79A2.76,2.76,0,0,1,93,60.46v3.68A4.08,4.08,0,0,0,93.34,66v.13Zm-1.88-1.58a2,2,0,0,0,.93-.22,1.47,1.47,0,0,0,.63-.6V62.25h-.85q-1.71,0-1.82,1.18v.13a.91.91,0,0,0,.3.7A1.16,1.16,0,0,0,89.17,64.53Z"/><path class="o" d="M94.39,61.8a5.12,5.12,0,0,1,.89-3.17,2.89,2.89,0,0,1,2.44-1.18,2.61,2.61,0,0,1,2.05.93V54h2.28V66.11H100l-.11-.9a2.67,2.67,0,0,1-2.18,1.06,2.89,2.89,0,0,1-2.41-1.18A5.29,5.29,0,0,1,94.39,61.8Zm2.27.17a3.36,3.36,0,0,0,.42,1.83,1.36,1.36,0,0,0,1.21.64,1.52,1.52,0,0,0,1.49-.89V60.19a1.5,1.5,0,0,0-1.47-.89Q96.66,59.3,96.66,62Z"/><path class="o" d="M103.46,61.8a5.12,5.12,0,0,1,.89-3.17,2.89,2.89,0,0,1,2.44-1.18,2.61,2.61,0,0,1,2.05.93V54h2.28V66.11h-2.05l-.11-.9a2.67,2.67,0,0,1-2.18,1.06,2.89,2.89,0,0,1-2.41-1.18A5.29,5.29,0,0,1,103.46,61.8Zm2.27.17a3.36,3.36,0,0,0,.42,1.83,1.36,1.36,0,0,0,1.21.64,1.52,1.52,0,0,0,1.49-.89V60.19a1.5,1.5,0,0,0-1.47-.89Q105.73,59.3,105.73,62Z"/><path class="o" d="M112.86,55.41a1.12,1.12,0,0,1,.34-.84,1.47,1.47,0,0,1,1.86,0,1.2,1.2,0,0,1,0,1.69,1.46,1.46,0,0,1-1.85,0A1.11,1.11,0,0,1,112.86,55.41Zm2.41,10.7H113v-8.5h2.28Z"/><path class="o" d="M119.23,57.61l.07,1a3,3,0,0,1,2.44-1.14,2.47,2.47,0,0,1,2,.79,3.71,3.71,0,0,1,.68,2.37v5.49h-2.27V60.68a1.48,1.48,0,0,0-.31-1,1.41,1.41,0,0,0-1-.33,1.56,1.56,0,0,0-1.44.82v6H117.1v-8.5Z"/><path class="o" d="M125.83,61.8a5,5,0,0,1,.93-3.15,3,3,0,0,1,2.51-1.19,2.65,2.65,0,0,1,2.18,1l.09-.8h2.06v8.22a3.63,3.63,0,0,1-.51,1.94A3.26,3.26,0,0,1,131.66,69a5,5,0,0,1-2.15.43,4.66,4.66,0,0,1-1.82-.37,3.24,3.24,0,0,1-1.34-1l1-1.38a2.66,2.66,0,0,0,2.06,1,2,2,0,0,0,1.41-.48,1.81,1.81,0,0,0,.5-1.37v-.46a2.63,2.63,0,0,1-2.07.89,3,3,0,0,1-2.48-1.2,5,5,0,0,1-.95-3.18Zm2.27.17a3.1,3.1,0,0,0,.46,1.81,1.47,1.47,0,0,0,1.27.66,1.58,1.58,0,0,0,1.49-.78V60.08a1.58,1.58,0,0,0-1.47-.78,1.48,1.48,0,0,0-1.28.67A3.5,3.5,0,0,0,128.1,62Z"/><path class="o" d="M141.44,57.61l.07,1A3,3,0,0,1,144,57.45a2.47,2.47,0,0,1,2,.79,3.71,3.71,0,0,1,.68,2.37v5.49h-2.27V60.68a1.48,1.48,0,0,0-.31-1,1.41,1.41,0,0,0-1-.33,1.56,1.56,0,0,0-1.44.82v6H139.3v-8.5Z"/><path class="o" d="M152.27,66.27a4.17,4.17,0,0,1-3-1.15,4.08,4.08,0,0,1-1.17-3.06v-.22a5.13,5.13,0,0,1,.5-2.29,3.64,3.64,0,0,1,1.4-1.56,3.94,3.94,0,0,1,2.07-.55,3.53,3.53,0,0,1,2.75,1.1,4.47,4.47,0,0,1,1,3.12v.93h-5.41a2.11,2.11,0,0,0,.66,1.34,2,2,0,0,0,1.4.5,2.45,2.45,0,0,0,2.05-1l1.12,1.25a3.4,3.4,0,0,1-1.38,1.13A4.53,4.53,0,0,1,152.27,66.27Zm-.26-7a1.42,1.42,0,0,0-1.1.46,2.37,2.37,0,0,0-.54,1.31h3.16v-.18a1.69,1.69,0,0,0-.41-1.17A1.46,1.46,0,0,0,152,59.29Z"/><path class="o" d="M164.45,63l1.12-5.41h2.19l-2.17,8.5h-1.9l-1.61-5.35-1.61,5.35h-1.89l-2.17-8.5h2.19L159.7,63l1.56-5.41h1.64Z"/><path class="o" d="M48.73,81.44a5.1,5.1,0,0,1-.89,3.15,2.86,2.86,0,0,1-2.41,1.18,2.65,2.65,0,0,1-2.08-.9v4H41.07V77.11h2.11l.08.83a2.67,2.67,0,0,1,2.15-1,2.88,2.88,0,0,1,2.44,1.16,5.24,5.24,0,0,1,.87,3.21Zm-2.27-.17A3.35,3.35,0,0,0,46,79.44a1.37,1.37,0,0,0-1.22-.64,1.49,1.49,0,0,0-1.47.82V83.1a1.51,1.51,0,0,0,1.49.84Q46.46,83.94,46.46,81.27Z"/><path class="o" d="M55.06,85.61a2.51,2.51,0,0,1-.23-.76,2.75,2.75,0,0,1-2.14.92A3,3,0,0,1,50.62,85a2.32,2.32,0,0,1-.82-1.82,2.4,2.4,0,0,1,1-2.07,4.94,4.94,0,0,1,2.89-.73h1v-.49a1.4,1.4,0,0,0-.3-.94,1.19,1.19,0,0,0-1-.35,1.36,1.36,0,0,0-.9.27.93.93,0,0,0-.33.75H50a2.28,2.28,0,0,1,.46-1.37,3,3,0,0,1,1.29-1A4.7,4.7,0,0,1,53.6,77a3.71,3.71,0,0,1,2.49.79A2.76,2.76,0,0,1,57,80v3.69a4.07,4.07,0,0,0,.34,1.83v.13ZM53.18,84a2,2,0,0,0,.93-.22,1.47,1.47,0,0,0,.63-.6V81.74h-.85q-1.71,0-1.82,1.18v.13a.91.91,0,0,0,.3.7A1.16,1.16,0,0,0,53.18,84Z"/><path class="o" d="M58.43,81.3a5,5,0,0,1,.93-3.15A3,3,0,0,1,61.87,77a2.65,2.65,0,0,1,2.18,1l.09-.8H66.2v8.22a3.63,3.63,0,0,1-.51,1.94,3.25,3.25,0,0,1-1.43,1.26,5,5,0,0,1-2.15.43,4.66,4.66,0,0,1-1.82-.37,3.24,3.24,0,0,1-1.34-1l1-1.38a2.66,2.66,0,0,0,2.06,1,2,2,0,0,0,1.41-.48,1.81,1.81,0,0,0,.5-1.37v-.45a2.63,2.63,0,0,1-2.07.89,3,3,0,0,1-2.48-1.2,5,5,0,0,1-.95-3.18Zm2.27.17a3.1,3.1,0,0,0,.46,1.81,1.47,1.47,0,0,0,1.27.66,1.58,1.58,0,0,0,1.49-.78V79.58a1.58,1.58,0,0,0-1.47-.78,1.48,1.48,0,0,0-1.28.67A3.5,3.5,0,0,0,60.7,81.47Z"/><path class="o" d="M71.85,85.77a4.18,4.18,0,0,1-3-1.15,4.08,4.08,0,0,1-1.17-3.06v-.22a5.13,5.13,0,0,1,.5-2.29,3.64,3.64,0,0,1,1.4-1.56A3.94,3.94,0,0,1,71.6,77a3.53,3.53,0,0,1,2.75,1.1,4.47,4.47,0,0,1,1,3.12v.93H69.94a2.11,2.11,0,0,0,.66,1.34,2,2,0,0,0,1.4.5,2.45,2.45,0,0,0,2.05-1l1.12,1.25a3.4,3.4,0,0,1-1.38,1.13A4.54,4.54,0,0,1,71.85,85.77Zm-.26-7a1.42,1.42,0,0,0-1.1.46A2.37,2.37,0,0,0,70,80.55h3.16v-.18a1.69,1.69,0,0,0-.41-1.17A1.46,1.46,0,0,0,71.6,78.78Z"/><path class="o" d="M81.24,83.26a.73.73,0,0,0-.41-.66,4.68,4.68,0,0,0-1.32-.43q-3-.64-3-2.58a2.34,2.34,0,0,1,.94-1.89A3.79,3.79,0,0,1,79.87,77a4.07,4.07,0,0,1,2.59.76,2.4,2.4,0,0,1,1,2H81.16a1.1,1.1,0,0,0-.31-.81,1.33,1.33,0,0,0-1-.32,1.36,1.36,0,0,0-.89.26.82.82,0,0,0-.31.66.7.7,0,0,0,.36.61,3.69,3.69,0,0,0,1.21.4,9.8,9.8,0,0,1,1.43.38,2.35,2.35,0,0,1,1.8,2.29,2.22,2.22,0,0,1-1,1.88,4.3,4.3,0,0,1-2.58.72,4.49,4.49,0,0,1-1.9-.38,3.18,3.18,0,0,1-1.3-1,2.43,2.43,0,0,1-.47-1.43h2.15a1.18,1.18,0,0,0,.45.93,1.78,1.78,0,0,0,1.12.32,1.64,1.64,0,0,0,1-.25A.77.77,0,0,0,81.24,83.26Z"/><path class="o" d="M92.83,85.77a4.18,4.18,0,0,1-3-1.15,4.08,4.08,0,0,1-1.17-3.06v-.22a5.13,5.13,0,0,1,.5-2.29,3.64,3.64,0,0,1,1.4-1.56A3.94,3.94,0,0,1,92.58,77a3.53,3.53,0,0,1,2.75,1.1,4.47,4.47,0,0,1,1,3.12v.93H90.91a2.11,2.11,0,0,0,.66,1.34,2,2,0,0,0,1.4.5A2.45,2.45,0,0,0,95,83l1.12,1.25a3.4,3.4,0,0,1-1.38,1.13A4.54,4.54,0,0,1,92.83,85.77Zm-.26-7a1.42,1.42,0,0,0-1.1.46,2.37,2.37,0,0,0-.54,1.31H94.1v-.18a1.69,1.69,0,0,0-.41-1.17A1.46,1.46,0,0,0,92.57,78.78Z"/><path class="o" d="M100.7,82.84l1.58-5.73h2.37l-2.87,8.5H99.61l-2.87-8.5h2.37Z"/><path class="o" d="M109.46,85.77a4.18,4.18,0,0,1-3-1.15,4.08,4.08,0,0,1-1.17-3.06v-.22a5.13,5.13,0,0,1,.5-2.29,3.64,3.64,0,0,1,1.4-1.56,3.94,3.94,0,0,1,2.07-.55,3.53,3.53,0,0,1,2.75,1.1,4.47,4.47,0,0,1,1,3.12v.93h-5.41a2.11,2.11,0,0,0,.66,1.34,2,2,0,0,0,1.4.5,2.45,2.45,0,0,0,2.05-1l1.12,1.25a3.4,3.4,0,0,1-1.38,1.13A4.54,4.54,0,0,1,109.46,85.77Zm-.26-7a1.42,1.42,0,0,0-1.1.46,2.37,2.37,0,0,0-.54,1.31h3.16v-.18a1.69,1.69,0,0,0-.41-1.17A1.46,1.46,0,0,0,109.2,78.78Z"/><path class="o" d="M119,79.24a6.14,6.14,0,0,0-.82-.06,1.66,1.66,0,0,0-1.69.87v5.56h-2.27v-8.5h2.14l.06,1A2.1,2.1,0,0,1,118.34,77a2.39,2.39,0,0,1,.71.1Z"/><path class="o" d="M123.43,82.4,125,77.11h2.44L124,86.93l-.19.45A2.59,2.59,0,0,1,121.31,89a3.57,3.57,0,0,1-1-.15V87.17h.35a1.87,1.87,0,0,0,1-.2,1.3,1.3,0,0,0,.5-.65l.27-.7-3-8.52h2.44Z"/><path class="o" d="M132,81.3a5.12,5.12,0,0,1,.89-3.17A2.89,2.89,0,0,1,135.31,77a2.61,2.61,0,0,1,2.05.93V73.54h2.28V85.61h-2.05l-.11-.9a2.67,2.67,0,0,1-2.18,1.06,2.89,2.89,0,0,1-2.41-1.18A5.29,5.29,0,0,1,132,81.3Zm2.27.17a3.36,3.36,0,0,0,.42,1.83,1.36,1.36,0,0,0,1.21.64,1.52,1.52,0,0,0,1.49-.89V79.69a1.5,1.5,0,0,0-1.47-.89Q134.25,78.8,134.25,81.47Z"/><path class="o" d="M146.33,85.61a2.51,2.51,0,0,1-.23-.76,2.75,2.75,0,0,1-2.14.92,3,3,0,0,1-2.07-.72,2.32,2.32,0,0,1-.82-1.82,2.4,2.4,0,0,1,1-2.07,4.94,4.94,0,0,1,2.89-.73h1v-.49a1.4,1.4,0,0,0-.3-.94,1.19,1.19,0,0,0-1-.35,1.36,1.36,0,0,0-.9.27.93.93,0,0,0-.33.75h-2.27a2.28,2.28,0,0,1,.46-1.37,3,3,0,0,1,1.29-1,4.7,4.7,0,0,1,1.87-.36,3.71,3.71,0,0,1,2.49.79,2.76,2.76,0,0,1,.92,2.22v3.69a4.07,4.07,0,0,0,.34,1.83v.13ZM144.45,84a2,2,0,0,0,.93-.22,1.47,1.47,0,0,0,.63-.6V81.74h-.85q-1.71,0-1.82,1.18v.13a.91.91,0,0,0,.3.7A1.16,1.16,0,0,0,144.45,84Z"/><path class="o" d="M153.08,82.4l1.57-5.29h2.44l-3.42,9.82-.19.45A2.59,2.59,0,0,1,151,89a3.57,3.57,0,0,1-1-.15V87.17h.35a1.87,1.87,0,0,0,1-.2,1.3,1.3,0,0,0,.5-.65l.27-.7-3-8.52h2.44Z"/><path class="o" d="M156.79,84.49a1.14,1.14,0,0,1,.37-.88,1.42,1.42,0,0,1,1.84,0,1.14,1.14,0,0,1,.37.88,1.13,1.13,0,0,1-.36.87,1.45,1.45,0,0,1-1.85,0A1.13,1.13,0,0,1,156.79,84.49Z"/></svg>