<?xml version="1.0" encoding="utf-8"?>
<!-- Generator: Adobe Illustrator 22.1.0, SVG Export Plug-In . SVG Version: 6.00 Build 0)  -->
<svg version="1.1"
	 id="svg821" inkscape:version="0.91 r13725" sodipodi:docname="KDElogoBoxBlue.svg" xmlns:cc="http://creativecommons.org/ns#" xmlns:dc="http://purl.org/dc/elements/1.1/" xmlns:inkscape="http://www.inkscape.org/namespaces/inkscape" xmlns:rdf="http://www.w3.org/1999/02/22-rdf-syntax-ns#" xmlns:sodipodi="http://sodipodi.sourceforge.net/DTD/sodipodi-0.dtd" xmlns:svg="http://www.w3.org/2000/svg"
	 xmlns="http://www.w3.org/2000/svg" xmlns:xlink="http://www.w3.org/1999/xlink" x="0px" y="0px" viewBox="0 0 40 40"
	 style="enable-background:new 0 0 40 40;" xml:space="preserve">
<style type="text/css">
	.st0{fill:#FFFFFF;}
	.st1{fill:#6C7A89;}
</style>
<sodipodi:namedview  bordercolor="#666666" borderopacity="1.0" id="base" inkscape:bbox-nodes="true" inkscape:current-layer="layer1" inkscape:cx="62.936714" inkscape:cy="68.6291" inkscape:document-units="mm" inkscape:pageopacity="0.0" inkscape:pageshadow="2" inkscape:snap-bbox="true" inkscape:window-height="2045" inkscape:window-maximized="1" inkscape:window-width="3840" inkscape:window-x="0" inkscape:window-y="0" inkscape:zoom="5.6" pagecolor="#ffffff" showgrid="true" units="px" width="128px">
	<inkscape:grid  id="grid1391" type="xygrid"></inkscape:grid>
</sodipodi:namedview>
<g>
	<rect id="rect4157" x="5.6" y="5.6" class="st0" width="28.8" height="28.8"/>
	<path id="path5692_2_-3" inkscape:connector-curvature="0" class="st1" d="M21.6,9.3l-3.7,0.4v15.1l3.6-0.5v-6.4l4.9,7.1l3.8-1.2
		l-5-6.9l5-6.5l-3.9-0.9l-4.8,6.5L21.6,9.3z M13.3,13c0,0-0.1,0-0.1,0.1l-1.4,1.4c-0.1,0.1-0.1,0.2,0,0.2l1.7,2.8
		c-0.3,0.5-0.5,1-0.7,1.6l-3.1,0.6c-0.1,0-0.1,0.1-0.1,0.2v2c0,0.1,0.1,0.2,0.1,0.2l3,0.7c0.2,0.7,0.4,1.3,0.7,1.9l-1.7,2.6
		c0,0.1,0,0.2,0,0.2l1.4,1.4c0.1,0.1,0.2,0.1,0.2,0l2.7-1.7c0.5,0.3,1.1,0.6,1.7,0.7l0.6,3c0,0.1,0.1,0.1,0.2,0.1h2
		c0.1,0,0.2-0.1,0.2-0.1l0.7-3.1c0.6-0.2,1.2-0.4,1.8-0.7l2.7,1.8c0.1,0,0.2,0,0.2,0l1.4-1.4c0.1-0.1,0.1-0.2,0-0.2l-1-1.6l-0.3,0.1
		c0,0-0.1,0-0.1,0c0,0-0.6-0.9-1.4-2.1c-1,1.9-2.9,3.2-5.2,3.2c-3.2,0-5.8-2.6-5.8-5.8c0-2.4,1.4-4.4,3.4-5.3v-1.5
		c-0.4,0.1-0.7,0.3-1.1,0.5c0,0,0,0,0,0L13.4,13C13.4,13,13.3,13,13.3,13L13.3,13z"/>
</g>
</svg>
