<svg width="40" height="40" viewBox="0 0 40 40" fill="none" xmlns="http://www.w3.org/2000/svg">
<path d="M19.52 29.8869C19.4771 30.5082 19.3766 31.1241 19.22 31.7269C19.2264 31.7532 19.2264 31.7806 19.22 31.8069C19.0677 32.3492 18.8874 32.8832 18.68 33.4069C18.57 33.6669 18.43 33.9369 18.29 34.1969C18.1326 34.4505 17.9554 34.6913 17.76 34.9169C17.5849 35.1432 17.3676 35.3334 17.12 35.4769C16.8678 35.6114 16.5858 35.6802 16.3 35.6769H3.53C3.24706 35.683 2.96756 35.614 2.72 35.4769C2.46971 35.3332 2.2491 35.1432 2.07 34.9169C1.88106 34.6909 1.71052 34.4501 1.56 34.1969C1.4 33.9369 1.28 33.6669 1.16 33.4069C1.02759 33.1247 0.914004 32.8341 0.820001 32.5369C0.820001 32.5369 0.700001 32.1169 0.650001 31.8969C0.650001 31.8369 0.43 30.7269 0.39 30.1369C0.0600003 25.3569 0 11.2269 0 11.2269C0 5.42689 3.17 0.00689305 9.88 0.00689305C11.2703 -0.0466351 12.655 0.212137 13.9321 0.764182C15.2092 1.31623 16.3464 2.14751 17.26 3.19689C18.9775 5.33145 19.8781 8.00826 19.8 10.7469C19.8 10.7469 19.89 25.1869 19.52 29.8869Z" transform="translate(10 2)" stroke="#6C7A89" stroke-width="0.75" stroke-linejoin="round"/>
<path d="M13.8432 19.94C13.8432 19.53 13.8432 19.11 13.8432 18.69V9.77C13.8432 9.62333 13.8432 9.47667 13.8432 9.33C13.8432 4.4 12.9932 0 7.00319 0C0.81319 0 0.00318953 4.47 0.00318953 9.45V19.06C0.00318953 19.49 0.00318953 19.93 0.00318953 20.35C-0.0288053 22.0015 0.180056 23.6488 0.623189 25.24C1.34319 27.77 3.15319 29.53 6.84319 29.59C12.8432 29.69 13.7332 25.01 13.7832 19.96L13.8432 19.94Z" transform="translate(13.0469 5.1167)" fill="#6C7A89"/>
<path d="M0.380812 1.96426C0.323184 1.96438 0.266283 1.9514 0.214414 1.92628C0.162545 1.90117 0.117067 1.86459 0.0814202 1.81931C0.0457737 1.77403 0.0208922 1.72123 0.00865958 1.66492C-0.00357306 1.6086 -0.00283688 1.55025 0.010812 1.49426C0.122676 1.06626 0.373284 0.687426 0.723414 0.417047C1.07354 0.146667 1.50344 0 1.94581 0C2.38819 0 2.81808 0.146667 3.16821 0.417047C3.51834 0.687426 3.76895 1.06626 3.88081 1.49426C3.89446 1.55025 3.8952 1.6086 3.88296 1.66492C3.87073 1.72123 3.84585 1.77403 3.8102 1.81931C3.77456 1.86459 3.72908 1.90117 3.67721 1.92628C3.62534 1.9514 3.56844 1.96438 3.51081 1.96426C3.42466 1.96216 3.34163 1.93158 3.27469 1.87731C3.20775 1.82303 3.16067 1.74812 3.14081 1.66426C3.072 1.40106 2.91787 1.1681 2.70255 1.00184C2.48722 0.835573 2.22286 0.745385 1.95081 0.745385C1.67877 0.745385 1.4144 0.835573 1.19908 1.00184C0.983753 1.1681 0.829625 1.40106 0.760812 1.66426C0.74095 1.74812 0.693873 1.82303 0.626934 1.87731C0.559995 1.93158 0.476964 1.96216 0.390812 1.96426H0.380812Z" transform="translate(14.4189 15.1528)" fill="white"/>
<path d="M0.380812 1.96426C0.323184 1.96438 0.266282 1.9514 0.214413 1.92628C0.162544 1.90117 0.117066 1.86459 0.0814196 1.81931C0.0457732 1.77403 0.0208927 1.72123 0.00866002 1.66492C-0.00357263 1.6086 -0.0028374 1.55025 0.0108115 1.49426C0.122675 1.06626 0.373284 0.687426 0.723414 0.417047C1.07354 0.146667 1.50344 0 1.94581 0C2.38819 0 2.81808 0.146667 3.16821 0.417047C3.51834 0.687426 3.76895 1.06626 3.88081 1.49426C3.89446 1.55025 3.8952 1.6086 3.88296 1.66492C3.87073 1.72123 3.84585 1.77403 3.8102 1.81931C3.77456 1.86459 3.72908 1.90117 3.67721 1.92628C3.62534 1.9514 3.56844 1.96438 3.51081 1.96426C3.42466 1.96216 3.34163 1.93158 3.27469 1.87731C3.20775 1.82303 3.16067 1.74812 3.14081 1.66426C3.072 1.40106 2.91787 1.1681 2.70255 1.00184C2.48722 0.835573 2.22286 0.745385 1.95081 0.745385C1.67877 0.745385 1.4144 0.835573 1.19908 1.00184C0.983753 1.1681 0.829625 1.40106 0.760812 1.66426C0.74095 1.74812 0.693872 1.82303 0.626933 1.87731C0.559994 1.93158 0.476965 1.96216 0.390813 1.96426H0.380812Z" transform="translate(21.6191 15.1528)" fill="white"/>
</svg>
