<svg width="40" height="40" viewBox="0 0 40 40" fill="none" xmlns="http://www.w3.org/2000/svg">
<path d="M37.7801 9.38C37.7801 11.48 36.6301 13 34.5501 14.05C34.3901 14.96 34.2701 16.12 34.2601 16.27C34.2649 16.386 34.2283 16.5 34.1569 16.5916C34.0854 16.6832 33.9838 16.7464 33.8701 16.77C33.4945 16.8409 33.1119 16.8677 32.7301 16.85C32.2857 16.8524 31.8426 16.802 31.4101 16.7C31.0201 16.61 30.9901 16.5 30.9901 16.5C30.8806 16.1776 30.6954 15.8861 30.4501 15.65C30.3843 15.5725 30.3106 15.5021 30.2301 15.44C26.4847 16.0743 22.688 16.3555 18.8901 16.28C15.004 16.3662 11.1187 16.0715 7.29008 15.4C7.16467 15.4893 7.05051 15.5933 6.95009 15.71C6.70849 15.9433 6.52669 16.2315 6.42008 16.55C6.42008 16.55 6.42008 16.66 6.00008 16.76C5.56716 16.8586 5.12407 16.9056 4.68008 16.9C4.29496 16.9172 3.90912 16.8904 3.53008 16.82C3.41725 16.7962 3.31675 16.7326 3.24697 16.6408C3.17719 16.549 3.1428 16.4351 3.15008 16.32C3.15008 16.16 2.99008 14.76 2.81008 13.84C1.97279 13.4321 1.26607 12.7984 0.769591 12.0104C0.273107 11.2224 0.00659219 10.3114 8.47899e-05 9.38C-0.00235877 8.95211 0.0480221 8.52555 0.150085 8.11V8.11C0.650085 4.98 5.41009 1.84 12.6101 1.17C13.4601 1.09 14.5001 1.06 15.6801 1.06V0.24L15.8901 0C15.8901 0 17.0101 0 18.7301 0C20.4501 0 21.6701 0 21.6701 0L21.8901 0.21V1.05C23.4601 1.05 24.7601 1.11 25.5901 1.21C32.5901 2.02 37.0601 5.04 37.6501 8.03C37.7536 8.47217 37.7973 8.92621 37.7801 9.38V9.38Z" transform="translate(1 12)" stroke="#6C7A89" stroke-width="0.75" stroke-linejoin="round"/>
<path d="M35.7 6C35.7 11 27.7 12 17.85 12C8 12 0 10.84 0 6C0 1.16 8 0 17.85 0C27.7 0 35.7 1.06 35.7 6Z" transform="translate(2.04004 15.1602)" fill="#6C7A89"/>
<path d="M2.87 5.74C4.45506 5.74 5.74 4.45506 5.74 2.87C5.74 1.28494 4.45506 0 2.87 0C1.28494 0 0 1.28494 0 2.87C0 4.45506 1.28494 5.74 2.87 5.74Z" transform="translate(4.11035 18.3599)" stroke="white" stroke-linejoin="round"/>
<path d="M2.87 5.74C4.45506 5.74 5.74 4.45506 5.74 2.87C5.74 1.28494 4.45506 0 2.87 0C1.28495 0 0 1.28494 0 2.87C0 4.45506 1.28495 5.74 2.87 5.74Z" transform="translate(29.5996 18.3599)" stroke="white" stroke-linejoin="round"/>
<path d="M0 0L1.65 1.08H7.7L9.36 0H0Z" transform="translate(15.04 22.6299)" fill="white" stroke="white" stroke-linecap="round" stroke-linejoin="round"/>
</svg>
