<?xml version="1.0" encoding="utf-8"?>
<!-- Generator: Adobe Illustrator 22.1.0, SVG Export Plug-In . SVG Version: 6.00 Build 0)  -->
<svg version="1.1" id="Layer_1" xmlns="http://www.w3.org/2000/svg" xmlns:xlink="http://www.w3.org/1999/xlink" x="0px" y="0px"
	 viewBox="0 0 1800 1800" enable-background="new 0 0 1800 1800" xml:space="preserve">
<g>
	<path fill="#22A7F0" d="M493.3,195.6C305.9,303.8,120.6,450,120.6,450v0h0c0,0-33.9,233.6-33.9,450c0,216.4,33.9,450,33.9,450
		s185.3,146.2,372.7,254.4C680.8,1712.6,900,1800,900,1800l0,0c0.1,0,219.3-87.4,406.7-195.6c187.4-108.2,372.7-254.4,372.7-254.4
		s33.9-233.6,33.9-450c0-216.4-33.9-450-33.9-450s-185.3-146.2-372.7-254.4C1119.2,87.4,900,0,900,0S680.8,87.4,493.3,195.6z"/>
	<path fill="#FFFFFF" d="M900,530c204,0,370,166,370,370s-166,370-370,370s-370-166-370-370S696,530,900,530 M900,462.8
		c-241.5,0-437.2,195.8-437.2,437.2s195.8,437.2,437.2,437.2s437.2-195.8,437.2-437.2S1141.5,462.8,900,462.8L900,462.8z"/>
	<path fill="#FFFFFF" d="M900,595.8C732,595.8,595.8,732,595.8,900S732,1204.2,900,1204.2V595.8z"/>
	<circle fill="#FFFFFF" cx="900" cy="272.5" r="77.5"/>
</g>
</svg>
