<svg width="40" height="40" viewBox="0 0 40 40" fill="none" xmlns="http://www.w3.org/2000/svg">
<path d="M22.01 0H0.889999C0.398466 0 0 0.398466 0 0.889999V14.16C0 14.6515 0.398466 15.05 0.889999 15.05H22.01C22.5015 15.05 22.9 14.6515 22.9 14.16V0.889999C22.9 0.398466 22.5015 0 22.01 0Z" transform="translate(8 12)" fill="#6C7A89"/>
<path d="M4.47 0H0V3.5H4.47V0Z" transform="translate(27.1201 12.6602)" fill="white" stroke="#6C7A89" stroke-width="0.26" stroke-miterlimit="10"/>
<path d="M5.11 0H0V4.24H5.11V0Z" transform="translate(26.4902 21.9399)" fill="white" stroke="#6C7A89" stroke-width="0.25" stroke-miterlimit="10"/>
<path d="M0.75 1.5C1.16421 1.5 1.5 1.16421 1.5 0.75C1.5 0.335786 1.16421 0 0.75 0C0.335786 0 0 0.335786 0 0.75C0 1.16421 0.335786 1.5 0.75 1.5Z" transform="translate(9.0498 24.5601)" fill="white"/>
<path d="M0.75 1.5C1.16421 1.5 1.5 1.16421 1.5 0.75C1.5 0.335786 1.16421 0 0.75 0C0.335786 0 0 0.335786 0 0.75C0 1.16421 0.335786 1.5 0.75 1.5Z" transform="translate(24.0898 24.5601)" fill="white"/>
<path d="M0.75 1.5C1.16421 1.5 1.5 1.16421 1.5 0.75C1.5 0.335786 1.16421 0 0.75 0C0.335786 0 0 0.335786 0 0.75C0 1.16421 0.335786 1.5 0.75 1.5Z" transform="translate(24.0898 12.98)" fill="white"/>
<path d="M0.75 1.5C1.16421 1.5 1.5 1.16421 1.5 0.75C1.5 0.335786 1.16421 0 0.75 0C0.335786 0 0 0.335786 0 0.75C0 1.16421 0.335786 1.5 0.75 1.5Z" transform="translate(9.0498 12.98)" fill="white"/>
<path d="M4.47 0H0V3.5H4.47V0Z" transform="translate(27.1201 17.3501)" fill="white" stroke="#6C7A89" stroke-width="0.26" stroke-miterlimit="10"/>
<path d="M4.78 9.56C3.83461 9.56 2.91044 9.27966 2.12438 8.75443C1.33831 8.22919 0.725645 7.48266 0.363858 6.60923C0.00207138 5.7358 -0.0925889 4.7747 0.0918484 3.84747C0.276286 2.92024 0.731537 2.06853 1.40003 1.40003C2.06853 0.731536 2.92024 0.276286 3.84747 0.0918484C4.7747 -0.0925889 5.7358 0.00207138 6.60923 0.363858C7.48266 0.725645 8.22919 1.33831 8.75443 2.12438C9.27966 2.91044 9.56 3.83461 9.56 4.78C9.56 5.40772 9.43636 6.02929 9.19615 6.60923C8.95593 7.18917 8.60384 7.71611 8.15997 8.15997C7.71611 8.60384 7.18916 8.95593 6.60923 9.19615C6.02929 9.43636 5.40772 9.56 4.78 9.56Z" transform="translate(12.5195 14.6401)" fill="white"/>
<path d="M4 0C3.20888 0 2.43552 0.234596 1.77772 0.674122C1.11992 1.11365 0.607234 1.73836 0.304484 2.46927C0.00173312 3.20017 -0.0774802 4.00444 0.0768607 4.78036C0.231202 5.55629 0.612165 6.26902 1.17157 6.82843C1.73098 7.38784 2.44372 7.7688 3.21964 7.92314C3.99556 8.07748 4.79983 7.99827 5.53074 7.69552C6.26164 7.39277 6.88635 6.88008 7.32588 6.22228C7.76541 5.56448 8 4.79113 8 4C7.98703 2.94316 7.56144 1.93327 6.81409 1.18591C6.06674 0.43856 5.05684 0.0129688 4 0ZM4 7.38C3.11683 7.38 2.26983 7.02916 1.64534 6.40466C1.02084 5.78017 0.670002 4.93317 0.670002 4.05C0.670002 3.16683 1.02084 2.31983 1.64534 1.69534C2.26983 1.07084 3.11683 0.719999 4 0.719999V7.38Z" transform="translate(13.2998 15.3599)" fill="#6C7A89"/>
</svg>
