<?xml version="1.0" encoding="utf-8"?>
<!-- Generator: Adobe Illustrator 21.1.0, SVG Export Plug-In . SVG Version: 6.00 Build 0)  -->
<svg version="1.1" id="Layer_1" xmlns="http://www.w3.org/2000/svg" xmlns:xlink="http://www.w3.org/1999/xlink" x="0px" y="0px"
	 viewBox="0 0 1181 212" style="enable-background:new 0 0 1181 212;" xml:space="preserve">
<style type="text/css">
	.st0{fill:#22A7F0;}
	.st1{fill:#FFFFFF;}
	.st2{fill:#2C3E50;}
</style>
<g>
	<path class="st2" d="M50.5,81l41.3,91.7L133.2,81c1.5-3.3,4.8-5.5,8.5-5.5h0.2c5.1,0,9.3,4.2,9.3,9.3v98.3c0,3.2-2.6,5.8-5.8,5.8h0
		c-3.2,0-5.8-2.6-5.8-5.8v-40.6l1.1-52.8L98,184.9c-1.1,2.4-3.5,4-6.2,4h0c-2.7,0-5.1-1.6-6.2-4L43.3,90.3l1.1,52.2v40.6
		c0,3.2-2.6,5.8-5.8,5.8h0c-3.2,0-5.8-2.6-5.8-5.8V84.8c0-5.1,4.2-9.3,9.3-9.3h0C45.7,75.6,49,77.7,50.5,81z"/>
	<path class="st2" d="M232.5,137.4L267,78.4c1-1.7,2.9-2.8,4.9-2.8h0c4.4,0,7.1,4.8,4.9,8.6l-38.5,63.6v35.3c0,3.2-2.6,5.8-5.8,5.8
		h0c-3.2,0-5.8-2.6-5.8-5.8v-35.8l-38.2-63.1c-2.3-3.8,0.4-8.6,4.9-8.6h0c2,0,3.9,1.1,4.9,2.8L232.5,137.4z"/>
	<path class="st2" d="M394.3,153.2c3.7,0,6.5,3.4,5.6,7c-2.1,8.6-6.4,15.5-12.6,20.6c-7.9,6.4-18.3,9.6-31.4,9.6
		c-13.8,0-24.9-4.6-33.4-13.9c-8.5-9.3-12.8-22.1-12.8-38.3v-12.5c0-10.2,1.9-19.3,5.8-27.2c3.9-7.9,9.3-13.9,16.4-18.2
		c7.1-4.2,15.3-6.4,24.6-6.4c13,0,23.3,3.3,31,9.8c6.1,5.2,10.3,12.1,12.4,20.8c0.9,3.6-2,7-5.6,7h0c-2.7,0-5-1.8-5.6-4.4
		c-1.6-6.7-4.5-12-8.8-15.9c-5.3-4.8-13-7.1-23.3-7.1c-10.9,0-19.5,3.7-25.8,11.1c-6.3,7.4-9.4,17.7-9.4,30.9v12.8
		c0,12.9,3.1,23.1,9.3,30.5c6.2,7.5,14.6,11.2,25.3,11.2c10.4,0,18.3-2.3,23.7-6.8c4.5-3.8,7.5-9.2,9.1-16.2
		C389.3,155,391.6,153.2,394.3,153.2L394.3,153.2z"/>
	<path class="st2" d="M486.2,143.4h-34.4v39.7c0,3.2-2.6,5.8-5.8,5.8h0c-3.2,0-5.8-2.6-5.8-5.8V75.6h40.2c13,0,23.2,3,30.6,9.1
		c7.4,6.1,11,14.5,11,25.1c0,7.5-2.3,14-6.8,19.5c-4.5,5.5-10.5,9.4-18,11.4l25.1,39.5c2.2,3.5-0.1,8.1-4.2,8.4l0,0
		c-2,0.2-4-0.8-5.1-2.6L486.2,143.4z M451.7,133.4h30.7c8.4,0,15.2-2.2,20.2-6.5c5.1-4.3,7.6-9.9,7.6-16.8c0-7.6-2.6-13.5-7.8-17.9
		c-5.2-4.3-12.5-6.5-21.8-6.6h-28.9V133.4z"/>
	<path class="st2" d="M789.9,137h-51.2v46.1c0,3.2-2.6,5.8-5.8,5.8l0,0c-3.2,0-5.8-2.6-5.8-5.8V75.6h70.9c2.7,0,5,2.2,5,5v0.2
		c0,2.7-2.2,5-5,5h-59.3v41.4h51.2c2.7,0,5,2.2,5,5v0C794.9,134.8,792.7,137,789.9,137z"/>
	<path class="st2" d="M916.8,85.7h-36.4v97.4c0,3.2-2.6,5.8-5.8,5.8l0,0c-3.2,0-5.8-2.6-5.8-5.8V85.7h-36.3c-2.8,0-5.1-2.3-5.1-5.1
		v0c0-2.8,2.3-5.1,5.1-5.1h84.3c2.8,0,5.1,2.3,5.1,5.1v0C921.8,83.4,919.6,85.7,916.8,85.7z"/>
	<path class="st2" d="M1085.8,158.6h-55l-10.7,26.8c-0.8,2.1-2.9,3.5-5.1,3.5h-0.1c-3.9,0-6.6-4-5.1-7.6l40.9-100.6
		c1.3-3.1,4.3-5.2,7.7-5.2l0,0c3.4,0,6.4,2.1,7.7,5.2l40.6,100.5c1.5,3.6-1.2,7.6-5.1,7.6l0,0c-2.3,0-4.3-1.4-5.1-3.5L1085.8,158.6z
		 M1034.7,148.7h47.1l-23.4-59.3L1034.7,148.7z"/>
	<path class="st2" d="M1150.2,188.9L1150.2,188.9c-3.2,0-5.8-2.6-5.8-5.8V81.4c0-3.2,2.6-5.8,5.8-5.8l0,0c3.2,0,5.8,2.6,5.8,5.8
		v101.7C1156,186.3,1153.4,188.9,1150.2,188.9z"/>
	<g>
		<path class="st0" d="M623.4,66.2c-36.1,0-65.3,29.2-65.3,65.3s29.2,65.3,65.3,65.3s65.3-29.2,65.3-65.3S659.4,66.2,623.4,66.2z
			 M623.4,186.7c-30.5,0-55.2-24.8-55.2-55.2c0-30.5,24.8-55.2,55.2-55.2s55.2,24.8,55.2,55.2C678.6,162,653.8,186.7,623.4,186.7z"
			/>
		<path class="st0" d="M577.9,131.5c0,25.1,20.3,45.4,45.4,45.4V86.1C598.3,86.1,577.9,106.4,577.9,131.5z"/>
		<circle class="st0" cx="623.4" cy="37.8" r="11.6"/>
	</g>
</g>
</svg>
